<?xml version="1.0" standalone="no"?>
<!DOCTYPE svg PUBLIC "-//W3C//DTD SVG 20010904//EN"
 "http://www.w3.org/TR/2001/REC-SVG-20010904/DTD/svg10.dtd">
<svg version="1.0" xmlns="http://www.w3.org/2000/svg"
 width="1024.000000pt" height="1024.000000pt" viewBox="0 0 1024.000000 1024.000000"
 preserveAspectRatio="xMidYMid meet">
<g transform="translate(0.000000,1024.000000) scale(0.100000,-0.100000)"
fill="#000000" stroke="none">
<path d="M3975 7411 c-143 -35 -277 -114 -386 -227 -113 -119 -173 -226 -208
-369 -18 -74 -20 -133 -24 -775 -3 -382 -2 -837 3 -1010 7 -302 9 -318 34
-395 71 -217 223 -395 421 -490 177 -85 85 -79 1285 -83 l1065 -3 97 25 c308
78 525 298 610 618 22 82 22 94 25 948 4 977 0 1080 -47 1221 -90 269 -312
474 -583 539 -79 19 -120 20 -1152 19 -979 0 -1076 -2 -1140 -18z m2063 -617
c136 -28 246 -106 315 -224 56 -96 58 -121 55 -677 l-3 -509 -38 -76 c-48 -98
-125 -176 -221 -224 -59 -29 -90 -37 -167 -44 -52 -5 -406 -10 -787 -10 l-693
0 -225 -215 c-138 -133 -232 -215 -244 -215 -19 0 -20 7 -20 261 l0 262 -46
56 c-26 31 -63 90 -83 131 l-36 75 -3 495 c-4 538 -1 573 49 673 67 132 186
221 329 247 25 4 427 8 893 9 738 1 858 -1 925 -15z"/>
<path d="M5779 6420 c-80 -42 -117 -113 -106 -206 21 -193 326 -210 382 -21
28 94 -14 182 -112 231 -43 21 -119 20 -164 -4z"/>
<path d="M4285 6405 c-43 -22 -94 -82 -101 -121 -14 -76 34 -162 112 -200 l51
-25 370 3 369 3 41 27 c93 62 110 192 35 271 -54 58 -49 57 -464 57 -321 0
-388 -3 -413 -15z"/>
<path d="M4320 5768 c-86 -24 -147 -107 -136 -186 6 -44 34 -93 71 -124 45
-38 78 -39 896 -36 l795 3 41 27 c45 29 83 96 83 144 0 73 -67 151 -149 174
-49 13 -1553 12 -1601 -2z"/>
<path d="M3318 3813 c-2 -5 -2 -248 0 -540 l3 -533 119 0 120 0 0 540 0 540
-119 0 c-66 0 -121 -3 -123 -7z"/>
<path d="M4547 3806 c-5 -13 2 -1058 8 -1064 1 -1 52 1 114 4 l111 7 0 39 c0
21 3 38 6 38 3 0 26 -16 51 -35 61 -46 104 -58 199 -54 65 3 92 10 145 36 80
40 159 120 197 200 24 51 27 70 27 158 0 114 -13 155 -76 246 -70 98 -173 157
-293 166 -85 7 -138 -12 -205 -72 l-41 -37 0 191 0 191 -119 0 c-93 0 -120 -3
-124 -14z m520 -491 c50 -21 72 -42 94 -90 48 -104 -6 -238 -109 -270 -66 -20
-162 4 -203 51 -87 100 -54 257 66 310 41 18 108 17 152 -1z"/>
<path d="M4080 3541 c-48 -15 -92 -43 -136 -83 l-44 -41 0 62 0 61 -120 0
-120 0 2 -397 3 -398 118 -3 117 -3 0 228 c0 211 1 230 21 271 37 76 126 109
206 77 76 -30 78 -37 81 -322 l3 -253 115 0 114 0 0 293 c0 170 -4 308 -10
329 -16 57 -70 120 -130 152 -42 23 -69 30 -124 32 -39 2 -82 0 -96 -5z"/>
<path d="M5770 3534 c-197 -53 -336 -260 -301 -449 25 -137 111 -249 239 -312
71 -36 81 -38 172 -38 89 0 101 3 164 34 85 42 173 128 212 207 26 54 29 68
29 164 0 93 -3 111 -27 163 -31 67 -114 158 -176 195 -86 50 -208 64 -312 36z
m188 -223 c72 -37 102 -87 102 -171 0 -60 -13 -96 -48 -133 -40 -42 -75 -57
-134 -57 -82 0 -149 49 -176 129 -7 19 -12 43 -12 55 0 70 55 156 115 182 44
19 110 17 153 -5z"/>
<path d="M6246 3528 c4 -7 42 -58 84 -113 100 -131 190 -260 190 -273 0 -12
-263 -366 -279 -376 -33 -21 -1 -26 126 -24 l137 3 90 127 89 128 73 -108
c117 -170 95 -156 235 -150 66 3 122 8 125 11 3 3 -56 89 -130 192 -75 103
-136 190 -136 194 0 9 113 170 186 266 33 44 69 92 78 108 l18 27 -129 0 -130
0 -94 -125 c-52 -69 -96 -125 -99 -125 -3 0 -17 19 -32 43 -15 23 -54 79 -87
125 l-61 82 -130 0 c-102 0 -130 -3 -124 -12z"/>
</g>
</svg>
